HIERARCHY
ROOT Hips
{
	OFFSET -3.958830 18.904000 13.208200
	CHANNELS 6 Xposition Yposition Zposition Zrotation Yrotation Xrotation 
	JOINT LHipJoint
	{
		OFFSET 0.000000 0.000000 0.000000
		CHANNELS 3 Zrotation Yrotation Xrotation
		JOINT LeftUpLeg
		{
			OFFSET 1.800000 -1.400000 0.085000
			CHANNELS 3 Zrotation Yrotation Xrotation
			JOINT LeftLeg
			{
				OFFSET 2.215000 -6.000000 0.000000
				CHANNELS 3 Zrotation Yrotation Xrotation
				JOINT LeftFoot
				{
					OFFSET 2.500000 -6.900000 0.000000
					CHANNELS 3 Zrotation Yrotation Xrotation
					JOINT LeftToeBase
					{
						OFFSET 0.200000 -0.500000 1.950000
						CHANNELS 3 Zrotation Yrotation Xrotation
						End Site
						{
							OFFSET 0.000000 0.000000 0.000000
						}
					}
				}
			}
		}
	}
	JOINT RHipJoint
	{
		OFFSET 0.000000 0.000000 0.000000
		CHANNELS 3 Zrotation Yrotation Xrotation
		JOINT RightUpLeg
		{
			OFFSET -1.800000 -1.400000 0.085000
			CHANNELS 3 Zrotation Yrotation Xrotation
			JOINT RightLeg
			{
				OFFSET -2.215000 -6.000000 0.000000
				CHANNELS 3 Zrotation Yrotation Xrotation
				JOINT RightFoot
				{
					OFFSET -2.500000 -6.900000 0.000000
					CHANNELS 3 Zrotation Yrotation Xrotation
					JOINT RightToeBase
					{
						OFFSET -0.200000 -0.500000 1.950000
						CHANNELS 3 Zrotation Yrotation Xrotation
						End Site
						{
							OFFSET 0.000000 0.000000 0.000000
						}
					}
				}
			}
		}
	}
	JOINT LowerBack
	{
		OFFSET 0.000000 0.000000 0.000000
		CHANNELS 3 Zrotation Yrotation Xrotation
		JOINT Spine
		{
			OFFSET -0.087000 1.940000 -0.288900
			CHANNELS 3 Zrotation Yrotation Xrotation
			JOINT Spine1
			{
				OFFSET 0.000000 1.950000 0.060000
				CHANNELS 3 Zrotation Yrotation Xrotation
				JOINT Neck
				{
					OFFSET 0.000000 0.000000 0.000000
					CHANNELS 3 Zrotation Yrotation Xrotation
					JOINT Neck1
					{
						OFFSET 0.000000 1.600000 0.340000
						CHANNELS 3 Zrotation Yrotation Xrotation
						JOINT Head
						{
							OFFSET 0.000000 1.667000 -0.240000
							CHANNELS 3 Zrotation Yrotation Xrotation
							End Site
							{
								OFFSET 0.000000 0.000000 0.000000
							}
						}
					}
				}
				JOINT LeftShoulder
				{
					OFFSET 0.000000 0.000000 0.000000
					CHANNELS 3 Zrotation Yrotation Xrotation
					JOINT LeftArm
					{
						OFFSET 2.700000 1.550000 -0.730000
						CHANNELS 3 Zrotation Yrotation Xrotation
						JOINT LeftForeArm
						{
							OFFSET 5.450000 0.000000 0.000000
							CHANNELS 3 Zrotation Yrotation Xrotation
							JOINT LeftHand
							{
								OFFSET 3.450000 0.000000 0.000000
								CHANNELS 3 Zrotation Yrotation Xrotation
								JOINT LeftHandIndex1
								{
									OFFSET 0.750000 0.000000 0.000000
									CHANNELS 3 Zrotation Yrotation Xrotation
									End Site
									{
										OFFSET 0.000000 0.000000 0.000000
									}
								}
							}
						}
					}
				}
				JOINT RightShoulder
				{
					OFFSET 0.000000 0.000000 0.000000
					CHANNELS 3 Zrotation Yrotation Xrotation
					JOINT RightArm
					{
						OFFSET -2.700000 1.550000 -0.730000
						CHANNELS 3 Zrotation Yrotation Xrotation
						JOINT RightForeArm
						{
							OFFSET -5.450000 0.000000 0.000000
							CHANNELS 3 Zrotation Yrotation Xrotation
							JOINT RightHand
							{
								OFFSET -3.450000 0.000000 0.000000
								CHANNELS 3 Zrotation Yrotation Xrotation
								JOINT RightHandIndex1
								{
									OFFSET -0.750000 0.000000 0.000000
									CHANNELS 3 Zrotation Yrotation Xrotation
									End Site
									{
										OFFSET 0.000000 0.000000 0.000000
									}
								}
							}
						}
					}
				}
			}
		}
	}
}
MOTION
Frames: 14
Frame Time: 0.016667
0.433010 16.096930 -1.527640 -12.743979 -21.490260 6.636378 -15.135365 10.868334 0.945308 5.554563 -2.797324 -15.615271 -1.906054 5.022762 18.897611 -1.185323 4.335309 3.371436 0.989200 0.595040 0.500770 19.145155 -7.045259 7.669927 -34.082621 6.037511 -69.186615 43.508514 -54.158579 71.949574 -3.647285 -17.347656 -0.463012 0.786320 0.671420 0.235490 -5.410880 -1.409490 -8.337213 20.544515 -5.339862 10.085309 -6.659913 -1.832459 4.193154 -0.944888 -7.413405 -2.786097 -12.678826 10.676063 19.497257 -0.690290 2.675440 -7.267210 -30.653328 -0.583375 -3.274591 -31.451450 -1.535414 -3.490416 -35.137720 -19.414153 2.591326 -4.143122 3.284631 0.285960 0.557860 -0.444060 0.530050 31.316896 2.715339 1.634200 32.330159 -5.339579 -5.011535 19.293338 12.033653 -1.216621 1.486696 -1.839004 -0.406460 0.545410 -0.153650 -0.302270 
0.431830 16.060660 -1.535830 -12.822026 -22.315339 6.261744 -15.131299 10.927516 0.979664 5.499145 -2.799669 -16.138166 -1.765824 5.304485 20.583961 -1.153809 4.506722 3.294787 0.960700 0.555450 0.506090 19.121893 -7.097113 7.628640 -33.113368 7.218072 -68.675834 42.099104 -54.033035 73.704748 -3.717192 -17.632019 -0.525906 0.755220 0.655770 0.237570 -5.396819 -1.418219 -8.358749 20.400385 -5.081445 10.792554 -6.581741 -1.618999 3.996944 -0.838539 -7.323601 -2.705606 -12.572506 10.550640 20.127443 -1.058460 2.925870 -7.334510 -30.841953 -0.390948 -3.402802 -31.716867 -1.583760 -3.564366 -34.356242 -18.980999 2.353476 -4.146123 3.252826 0.304230 0.548290 -0.431660 0.508180 31.240574 2.549159 1.544652 32.202192 -5.075399 -5.004492 19.458895 11.894452 -1.163125 1.503859 -1.810551 -0.410610 0.536030 -0.140990 -0.314960 
0.428280 15.980030 -1.553010 -12.450049 -23.233072 5.533306 -15.134975 11.042360 1.096041 4.519355 -2.954053 -17.439321 -0.770587 5.541076 23.972831 -1.124777 4.780230 3.152542 0.967170 0.561580 0.519700 19.066455 -7.187531 7.507355 -31.019633 9.095276 -67.122952 38.949011 -53.688839 77.423511 -3.863900 -18.184781 -0.646161 0.751120 0.610740 0.230140 -5.317144 -1.519884 -8.394085 19.632619 -4.756632 12.207943 -6.450419 -1.435650 3.192125 -0.860176 -7.469503 -2.358255 -12.933111 10.440868 20.570328 -1.069470 2.811840 -8.358390 -31.542960 0.328158 -3.953804 -31.768912 -1.940559 -3.454800 -32.343369 -17.806660 1.797854 -4.120890 3.208126 0.346050 0.509090 -0.401360 0.487380 31.868249 2.028177 1.345884 31.534861 -5.256317 -5.145433 19.385049 12.492798 -1.020321 1.490606 -1.784744 -0.407560 0.533310 -0.132500 -0.331280 
0.447440 15.898650 -1.565670 -11.800937 -24.399249 4.373529 -15.135333 11.200799 1.310763 3.330131 -3.217618 -18.796490 0.021735 5.890778 27.711032 -1.003677 5.174520 2.979477 0.922810 0.497030 0.493030 18.987481 -7.340418 7.274123 -28.649709 10.638333 -63.494532 35.780245 -52.559305 80.214909 -3.932238 -18.479767 -0.709008 0.681030 0.575650 0.219140 -5.202269 -1.697159 -8.445584 18.928392 -4.590334 14.086851 -6.490374 -1.439332 1.935327 -0.851792 -8.000663 -2.365784 -14.177519 11.051559 21.645798 -0.317500 2.994210 -8.523690 -32.032431 0.995153 -4.212174 -32.844442 -1.672001 -3.725263 -29.658709 -16.643500 1.153940 -4.073589 3.174542 0.387400 0.454240 -0.381030 0.465680 32.232829 1.877733 1.360551 31.195272 -5.209709 -5.300176 18.867417 12.535301 -0.879673 1.532256 -1.733493 -0.397810 0.506150 -0.112040 -0.333330 
0.447540 15.804580 -1.560160 -10.885020 -24.818020 3.316900 -15.143060 11.340682 1.597200 2.506379 -3.707996 -20.427565 0.203685 6.416646 31.381855 -0.860098 5.702482 2.779032 0.859580 0.433260 0.447000 18.893831 -7.581405 6.847847 -25.358430 11.546224 -58.008917 31.537819 -50.159298 82.555367 -3.910053 -18.565232 -0.732541 0.624760 0.592800 0.206910 -5.031125 -1.846592 -8.424547 17.473780 -4.163782 14.687177 -6.314661 -1.485249 1.233229 -0.716522 -7.769844 -2.068120 -14.014120 11.428337 22.856645 0.397110 3.395340 -7.907210 -32.433854 1.783653 -4.629915 -34.076745 -2.100617 -3.581934 -26.256652 -14.449512 0.370058 -4.095231 3.102375 0.384470 0.449670 -0.389100 0.451640 32.381795 1.018740 1.076776 31.664762 -5.354381 -5.468325 18.251603 12.166800 -0.877583 1.568952 -1.680395 -0.400230 0.505330 -0.085640 -0.321130 
0.448180 15.735180 -1.567360 -9.694300 -25.113377 1.148345 -15.171975 11.579997 1.866617 2.127730 -4.028494 -20.465254 -0.644521 7.168985 33.792894 -0.725401 6.166197 2.581088 0.809390 0.359920 0.464320 18.759138 -7.792358 6.477351 -22.896408 11.728608 -51.966798 29.333369 -48.807601 83.446088 -3.883422 -18.415718 -0.715476 0.547420 0.519250 0.197140 -4.731488 -2.173182 -8.507792 15.186560 -3.672523 16.599748 -6.073439 -1.334155 0.757820 -0.235618 -7.072807 -2.009877 -13.242558 11.077530 25.841775 0.056070 4.140170 -8.029130 -33.206248 1.754842 -4.985599 -34.685355 -2.985954 -3.447912 -22.217194 -12.489499 -0.244536 -4.071252 3.015896 0.438490 0.398430 -0.348360 0.401490 32.314661 0.669855 1.080659 32.843107 -5.647950 -5.924126 17.971715 11.724153 -0.841716 1.625149 -1.606244 -0.393820 0.459640 -0.074440 -0.354680 
0.437170 15.671670 -1.556590 -9.133032 -26.290798 0.384136 -15.163336 11.708735 2.048694 2.871399 -4.068670 -20.332459 -2.907674 8.287854 34.333036 -0.582367 6.491616 2.460248 0.767300 0.319470 0.446650 18.685015 -8.098031 6.050163 -19.858772 12.135261 -46.380822 27.667803 -46.560707 82.875434 -3.780718 -18.073223 -0.651513 0.493210 0.504580 0.196640 -4.618862 -2.132132 -8.435929 14.124049 -2.797083 16.341543 -6.021167 -0.769759 0.531262 0.060296 -6.554032 -1.607567 -12.556896 10.789071 27.692255 -0.012790 4.562330 -6.803240 -33.473178 2.910961 -5.580641 -35.961654 -3.572103 -3.261256 -19.098355 -10.707460 -0.599133 -4.093194 2.979108 0.411420 0.396100 -0.347790 0.387410 31.924481 -0.703586 0.853068 33.923283 -6.744714 -6.413976 18.158096 11.706960 -0.844828 1.667928 -1.603113 -0.366860 0.415800 -0.077760 -0.344570 
0.408480 15.627570 -1.553540 -8.409838 -28.106328 -0.565486 -15.169366 11.882515 2.278995 3.677316 -4.076722 -20.271535 -5.243866 9.603287 35.179918 -0.444374 6.967641 2.313479 0.680740 0.207510 0.421230 18.595102 -8.423754 5.565600 -16.456033 12.510092 -40.153571 25.638980 -43.108463 81.532875 -3.601223 -17.445808 -0.504943 0.410620 0.516160 0.158810 -4.451782 -2.150482 -8.376731 12.695006 -1.868342 16.328785 -5.845463 -0.027700 0.482164 0.226435 -6.430632 -1.830914 -12.829905 10.843676 30.088362 -0.173450 5.056610 -5.512030 -33.045293 3.450481 -5.590294 -37.553001 -3.267872 -3.475825 -16.844171 -9.996143 -0.781911 -4.102673 2.874285 0.435610 0.386990 -0.358970 0.368310 31.130534 -0.968258 1.007894 35.822653 -7.264379 -7.017848 17.868628 11.401811 -0.832763 1.719494 -1.521646 -0.402240 0.431700 -0.057260 -0.356670 
0.374260 15.586400 -1.545410 -7.592146 -30.421321 -0.855771 -15.178645 11.955724 2.478315 4.674892 -4.005039 -20.441415 -7.816480 10.997125 35.599684 -0.365430 7.496089 2.150317 0.619190 0.121870 0.379320 18.542719 -8.761939 5.050503 -13.405209 12.513385 -34.406116 23.025062 -38.872929 79.783895 -3.357359 -16.668194 -0.341582 0.378220 0.586790 0.151330 -4.374689 -1.984166 -8.192410 11.481025 -0.821696 14.880181 -5.787274 0.770384 0.939632 0.107723 -6.439591 -1.665483 -12.978984 11.560225 30.780798 0.318560 5.532000 -4.406760 -32.421306 4.441514 -5.716570 -38.822447 -2.991847 -3.510527 -15.722201 -9.622224 -0.911919 -4.162466 2.805388 0.447130 0.419790 -0.398020 0.368550 30.643896 -1.664595 0.785192 37.400077 -7.285254 -7.260725 17.722058 10.713962 -0.899086 1.723973 -1.472628 -0.454540 0.472310 -0.014460 -0.359650 
0.338520 15.554270 -1.530380 -6.647773 -33.026404 -0.918311 -15.175480 12.039026 2.625456 5.337095 -3.741474 -20.268128 -9.886601 11.977545 35.264964 -0.238339 7.752242 2.066482 0.591290 0.103740 0.316840 18.512509 -9.161036 4.527594 -11.109805 11.956446 -28.849015 20.186335 -34.129386 77.160773 -3.053470 -15.659632 -0.125628 0.350410 0.619290 0.166030 -4.350716 -1.712326 -7.921328 10.472871 0.122841 12.754931 -6.004968 1.457059 1.550054 0.014382 -6.614554 -1.713765 -13.314330 12.257371 31.250882 1.418400 5.662410 -2.815720 -31.190859 5.484642 -5.486313 -40.635048 -2.181501 -3.838193 -14.886566 -9.707057 -0.938509 -4.173913 2.845758 0.405850 0.434120 -0.417740 0.386810 29.525148 -2.215012 0.600489 39.464632 -6.863044 -7.278163 17.999122 9.423796 -1.004053 1.782521 -1.484776 -0.428050 0.440720 -0.007480 -0.321550 
0.311480 15.533300 -1.523680 -6.128989 -35.658348 -0.701680 -15.157757 12.109910 2.770965 6.242913 -3.459257 -20.242422 -11.794246 12.839524 34.778657 -0.121177 7.978158 1.992126 0.554490 0.065100 0.274740 18.499079 -9.580116 4.013465 -9.060600 11.018708 -23.486396 17.533099 -29.448573 73.526955 -2.711011 -14.507813 0.143917 0.306470 0.637810 0.193840 -4.374690 -1.383368 -7.637124 10.104198 1.028085 10.730228 -6.421732 2.182102 2.209146 0.176773 -6.563338 -1.810286 -13.117406 12.509173 31.738350 1.312880 6.183380 -1.052470 -30.279494 6.115320 -5.205096 -41.938825 -1.561343 -4.171904 -14.183286 -10.318229 -0.887336 -4.194136 2.892439 0.362180 0.461300 -0.435980 0.390960 28.215474 -2.638920 0.573716 41.840916 -6.495150 -7.475669 17.956476 9.107453 -1.001918 1.830568 -1.511551 -0.397660 0.387020 -0.000560 -0.300100 
0.295370 15.523430 -1.530610 -6.099433 -38.509110 -0.328129 -15.103414 12.144505 2.950517 7.242381 -3.276700 -20.619869 -13.412266 13.714295 34.858293 -0.008655 8.268379 1.892048 0.511730 0.013950 0.232090 18.518313 -10.017185 3.539412 -7.136077 9.786056 -18.061122 15.131011 -25.073953 69.012278 -2.353681 -13.253507 0.467449 0.259160 0.653090 0.199330 -4.537201 -0.973178 -7.386904 10.852124 1.794337 9.214028 -7.366748 2.867635 2.551005 0.276851 -6.903439 -2.132444 -13.772258 13.316262 32.537681 1.837870 6.682660 0.590190 -29.556347 6.509564 -4.847443 -42.573441 -0.773651 -4.584111 -14.249701 -11.638208 -0.738295 -4.185260 2.926689 0.344080 0.468160 -0.453450 0.388570 27.067340 -2.693889 0.792332 43.992471 -6.298487 -7.693465 18.503472 8.930692 -0.948577 1.869988 -1.518681 -0.386090 0.354260 0.014650 -0.286600 
0.297240 15.531470 -1.543440 -6.020624 -40.903104 0.061392 -15.032941 12.187594 3.160457 7.889346 -3.320157 -21.085436 -14.951539 14.231540 34.452162 0.070056 8.387686 1.846483 0.506720 0.010830 0.224990 18.544644 -10.444845 3.092517 -6.151279 7.846961 -12.617351 13.540259 -21.276796 62.551029 -1.980284 -11.836994 0.857592 0.236800 0.636650 0.182270 -4.734305 -0.643150 -7.159087 12.003397 2.120036 8.142355 -8.623790 3.140364 2.515384 0.198677 -7.808722 -2.535746 -15.782595 14.765830 33.279325 2.535770 7.302770 1.514260 -29.433089 6.731083 -4.528518 -42.644571 -0.078167 -4.906899 -14.052069 -13.119854 -0.575617 -4.133481 2.952259 0.343630 0.443010 -0.447510 0.389590 26.778826 -2.338682 1.143236 45.173676 -6.132914 -7.693553 18.820299 9.006003 -0.856143 1.905733 -1.519623 -0.371560 0.337900 0.003580 -0.278650 
0.292080 15.555190 -1.567180 -5.888411 -42.670436 0.113004 -14.982064 12.321630 3.373222 8.448765 -3.473665 -21.316065 -16.047615 14.385926 33.928004 0.082026 8.407170 1.815142 0.521130 0.020430 0.268960 18.540483 -10.810693 2.718035 -5.303115 5.438934 -7.147321 11.702542 -17.658301 55.056750 -1.627909 -10.309534 1.303632 0.222220 0.576030 0.167470 -4.775803 -0.568144 -7.030142 12.347209 2.049379 7.989128 -9.426613 3.066867 2.262742 0.210803 -8.327073 -3.069395 -17.301965 15.971507 34.612401 2.706440 8.257330 0.733840 -30.068659 6.177228 -3.935024 -41.569011 1.329998 -5.676703 -13.891610 -16.257353 -0.330263 -4.039487 2.951264 0.405140 0.387640 -0.391820 0.372270 27.265775 -1.491211 1.551514 45.721952 -5.931204 -7.671274 19.366117 9.276064 -0.688080 1.922051 -1.473963 -0.368000 0.340470 -0.010550 -0.301370 
